<svg width="71" height="71" viewBox="0 0 71 71" fill="none" xmlns="http://www.w3.org/2000/svg">
<path fill-rule="evenodd" clip-rule="evenodd" d="M35.5003 65.0832C51.8392 65.0832 65.0837 51.8387 65.0837 35.4998C65.0837 19.161 51.8392 5.9165 35.5003 5.9165C19.1615 5.9165 5.91699 19.161 5.91699 35.4998C5.91699 51.8387 19.1615 65.0832 35.5003 65.0832ZM47.1414 16.5428C47.5495 16.7091 47.8989 16.9932 48.145 17.3589C48.391 17.7245 48.5226 18.1552 48.5229 18.5959V26.6278C48.5229 27.2162 48.2891 27.7806 47.8731 28.1967C47.457 28.6128 46.8926 28.8465 46.3042 28.8465H38.4587C38.022 28.8468 37.5949 28.7182 37.231 28.4768C36.8671 28.2354 36.5825 27.892 36.4129 27.4896C36.2433 27.0872 36.1962 26.6437 36.2775 26.2146C36.3588 25.7856 36.5649 25.3901 36.87 25.0776L39.1243 22.7701C36.947 22.1012 34.627 22.0481 32.4214 22.6167C30.2158 23.1853 28.2107 24.3535 26.6283 25.9918C21.6938 31.0416 21.6938 39.254 26.6283 44.3038C27.7788 45.4947 29.1572 46.4417 30.6814 47.0885C32.2057 47.7353 33.8445 48.0686 35.5003 48.0686C37.1561 48.0686 38.795 47.7353 40.3192 47.0885C41.8435 46.4417 43.2219 45.4947 44.3724 44.3038C46.3147 42.3109 47.5672 39.7478 47.946 36.9908C48.1176 35.7543 49.0998 34.7129 50.3482 34.7129C51.5493 34.7129 52.5433 35.6744 52.4279 36.8695C52.0513 40.8363 50.3288 44.5547 47.5467 47.4071C45.9829 49.021 44.1107 50.3043 42.0413 51.1806C39.972 52.0569 37.7476 52.5085 35.5003 52.5085C33.2531 52.5085 31.0287 52.0569 28.9593 51.1806C26.89 50.3043 25.0178 49.021 23.454 47.4071C16.8362 40.6325 16.8362 29.666 23.454 22.8914C25.8686 20.3992 28.9967 18.7171 32.4072 18.0771C35.8178 17.437 39.3429 17.8705 42.4968 19.3178L44.7155 17.0458C45.024 16.7302 45.4196 16.5138 45.8517 16.4242C46.2838 16.3346 46.7329 16.3759 47.1414 16.5428Z" fill="#255935"/>
</svg>
