<svg width="800" height="800" viewBox="0 0 800 800" fill="none" xmlns="http://www.w3.org/2000/svg">
<g clip-path="url(#clip0_136_94)">
<path d="M400 800C620.914 800 800 620.914 800 400C800 179.086 620.914 0 400 0C179.086 0 0 179.086 0 400C0 620.914 179.086 800 400 800Z" fill="#F5EFD5"/>
<path d="M579.311 744.828C358.397 744.828 179.311 565.742 179.311 344.828C179.311 198.494 257.93 70.5767 375.192 0.842285C165.844 13.6642 0 187.427 0 400C0 620.914 179.086 800 400 800C474.581 800 544.353 779.527 604.119 743.986C595.905 744.488 587.648 744.828 579.311 744.828Z" fill="#E5DFC5"/>
<path d="M292.826 101.411L262.34 195.025C258.642 206.381 248.055 214.071 236.109 214.071H137.57C125.614 214.071 115.019 206.369 111.331 194.997L94.2061 142.206C132.275 96.9658 180.275 60.2752 234.895 35.7236L282.812 70.5549C292.486 77.5846 296.528 90.0439 292.826 101.411Z" fill="#48763B"/>
<path d="M534.897 23.3109L487.947 57.4781C483.231 60.9109 477.549 62.7594 471.714 62.7594H328.002C322.172 62.7594 316.496 60.9125 311.78 57.4859L264.966 23.45C307.172 8.27656 352.552 0 400 0C447.311 0 492.828 8.27656 534.897 23.3109Z" fill="#CFD3A3"/>
<path d="M728.966 627.586C679.172 699.448 606.345 754.344 521.242 781.241L538.178 729.242C539.906 723.941 543.134 719.333 547.561 715.942C568.662 699.763 633.417 650.112 655.383 633.255C660.202 629.556 666.061 627.586 672.134 627.586H728.966Z" fill="#CFD3A3"/>
<path d="M798.621 432.137C793.932 492.966 775.31 549.931 746.207 600H686.675C674.719 600 664.122 592.297 660.435 580.922L630.039 487.189C626.355 475.826 630.402 463.384 640.066 456.362L719.788 398.434C731.738 398.433 740.264 398.433 752.214 398.431L798.621 432.137Z" fill="#48763B"/>
<path d="M505.778 739.5L489.38 789.794C460.689 796.551 430.76 800 400 800C369.103 800 339.035 796.551 310.207 789.794L293.902 739.476C290.219 728.109 294.271 715.664 303.941 708.645L383.66 650.794C393.324 643.781 406.4 643.781 416.064 650.794L495.752 708.623C505.438 715.651 509.486 728.122 505.778 739.5Z" fill="#48763B"/>
<path d="M278.345 780.689C193.379 753.655 120.828 699.448 71.0342 627.586H127.233C133.289 627.586 139.129 629.542 143.939 633.22C165.992 650.084 231.12 699.987 252.295 716.217C256.725 719.611 259.956 724.219 261.683 729.523L278.345 780.689Z" fill="#A4A77E"/>
<path d="M169.686 487.186L139.291 580.922C135.602 592.297 125.005 600 113.049 600H53.7939C24.5518 549.931 6.06894 492.966 1.37988 432L47.5002 398.43C57.1721 391.391 70.2799 391.386 79.9549 398.419L159.666 456.364C169.324 463.386 173.369 475.827 169.686 487.186Z" fill="#436836"/>
<path d="M90.2594 236.061L52.5453 354.14C50.7578 359.739 47.2266 364.622 42.4688 368.073L0 398.897C0.276563 313.103 27.4484 233.656 73.7938 168.69L90.2125 219.128C92.0016 224.628 92.0187 230.55 90.2594 236.061Z" fill="#A4A77E"/>
<path d="M800 399.035L756.706 367.655C751.945 364.205 748.412 359.324 746.622 353.725L709.203 236.777C707.434 231.25 707.454 225.306 709.258 219.791L726.068 168.411C772.551 233.517 799.862 313.103 800 399.035Z" fill="#CFD3A3"/>
<path d="M705.517 142.069L688.388 194.98C684.703 206.361 674.105 214.069 662.142 214.069H563.614C551.669 214.069 541.083 206.383 537.383 195.023L506.895 101.403C503.195 90.0391 507.233 77.5844 516.897 70.5531L564.964 35.5859C619.586 60.1375 667.449 96.9656 705.517 142.069Z" fill="#48763B"/>
<path d="M625.334 621.651L543.1 684.597C533.406 692.015 519.988 692.183 510.114 685.006L425.023 623.159C417.883 617.969 413.656 609.673 413.656 600.844V560.675C413.656 551.845 417.883 543.551 425.025 538.359L522.023 467.865C528.531 463.136 536.781 461.483 544.609 463.339L582.294 472.279C591.663 474.501 599.194 481.448 602.164 490.608L634.808 591.229C638.416 602.354 634.619 614.545 625.334 621.651Z" fill="#CFD3A3"/>
<path d="M386.069 560.683V600.847C386.069 609.673 381.846 617.967 374.707 623.158L289.461 685.145C279.593 692.322 266.182 692.163 256.488 684.752L174.286 621.933C164.985 614.825 161.183 602.619 164.802 591.484L197.721 490.234C200.682 481.13 208.151 474.211 217.454 471.955L254.369 463.003C262.23 461.097 270.532 462.738 277.079 467.489L374.693 538.358C381.838 543.55 386.069 551.848 386.069 560.683Z" fill="#CFD3A3"/>
<path d="M300.289 313.006L266.124 418.216C263.174 427.3 255.735 434.212 246.456 436.487L208.57 445.78C200.685 447.714 192.349 446.077 185.781 441.302L94.6111 375.034C84.983 368.037 80.9299 355.655 84.5549 344.319L111.244 260.841C114.897 249.411 125.522 241.656 137.52 241.656H246.433C254.911 241.656 262.917 245.555 268.147 252.227L295.766 287.473C301.431 294.7 303.127 304.272 300.289 313.006Z" fill="#CFD3A3"/>
<path d="M495.764 452.886L416.066 510.724C406.401 517.736 393.325 517.736 383.661 510.724L303.962 452.886C294.283 445.863 290.231 433.4 293.931 422.025L324.425 328.292C328.122 316.93 338.711 309.241 350.658 309.241H449.072C461.02 309.241 471.608 316.931 475.305 328.292L505.798 422.025C509.494 433.4 505.444 445.863 495.764 452.886Z" fill="#48763B"/>
<path d="M704.686 375.314L613.583 441.503C607.064 446.239 598.798 447.889 590.961 446.017L553.654 437.108C544.315 434.877 536.808 427.952 533.834 418.822L499.283 312.775C496.453 304.092 498.104 294.574 503.692 287.352L530.756 252.364C535.979 245.611 544.037 241.655 552.576 241.655H661.662C673.658 241.655 684.278 249.406 687.934 260.831L714.747 344.586C718.376 355.924 714.319 368.314 704.686 375.314Z" fill="#CFD3A3"/>
<path d="M508.856 235.673L481.524 270.961C476.3 277.706 468.246 281.655 459.714 281.655H339.744C331.283 281.655 323.291 277.772 318.06 271.122L290.758 236.405C285.069 229.17 283.361 219.575 286.208 210.822L319.185 109.401C322.88 98.0374 333.469 90.3452 345.419 90.3452H454.3C466.253 90.3452 476.847 98.0437 480.538 109.411L513.288 210.261C516.105 218.941 514.449 228.456 508.856 235.673Z" fill="#CFD3A3"/>
<path d="M305.902 53.2092C326.908 33.5139 349.916 15.9311 374.792 1.09668C373.058 1.20605 371.291 1.19355 369.561 1.3248C366.51 1.55605 363.464 1.80918 360.433 2.10762C351.421 2.99668 342.488 4.14199 333.667 5.62168C331.058 6.05605 328.48 6.57168 325.889 7.05605C316.613 8.80293 307.408 10.7514 298.369 13.1264C296.997 13.4857 295.656 13.917 294.289 14.292C285.055 16.8264 275.938 19.6529 266.975 22.8217C266.325 23.0514 265.661 23.2529 265.013 23.4857L305.902 53.2092Z" fill="#A4A77E"/>
<path d="M191.847 444.548C183.667 412.67 179.311 379.258 179.311 344.828C179.311 309.141 184.06 274.575 192.832 241.656H137.521C125.522 241.656 114.899 249.412 111.244 260.841L84.555 344.319C80.9315 355.655 84.9847 368.037 94.6112 375.034L185.78 441.302C187.667 442.67 189.722 443.705 191.847 444.548Z" fill="#A4A77E"/>
<path d="M203.127 481.012C200.816 483.722 198.855 486.743 197.721 490.234L164.802 591.484C161.182 602.618 164.983 614.823 174.285 621.933L256.488 684.751C266.183 692.161 279.593 692.32 289.461 685.145L328.779 656.556C272.236 611.054 228.305 550.547 203.127 481.012Z" fill="#A4A77E"/>
<path d="M433.778 798.428C439.391 797.958 444.98 797.402 450.523 796.702C454.13 796.239 457.717 795.712 461.291 795.152C465.325 794.53 469.328 793.817 473.322 793.075C478.381 792.114 483.436 791.147 488.42 789.988C488.747 789.916 489.067 789.825 489.392 789.752L505.776 739.5C505.937 739.009 505.88 738.502 506.011 738.006C449.589 727.552 397.337 705.3 351.902 673.836L303.939 708.642C294.269 715.659 290.217 728.106 293.9 739.473L310.194 789.75C310.667 789.858 311.144 789.972 311.62 790.08C316.998 791.317 322.437 792.384 327.898 793.392C330.262 793.823 332.617 794.27 334.995 794.659C339.302 795.372 343.648 795.956 348 796.523C350.919 796.903 353.823 797.322 356.764 797.638C361.203 798.116 365.686 798.448 370.17 798.777C372.867 798.977 375.547 799.245 378.256 799.391C385.455 799.773 392.702 800 400 800C408.619 800 417.156 799.662 425.639 799.122C428.369 798.95 431.064 798.656 433.778 798.428Z" fill="#436836"/>
<path d="M579.311 744.828C563.967 744.828 548.851 743.88 533.959 742.197L521.323 780.994C522.851 780.508 524.392 780.05 525.911 779.545C532.414 777.398 538.811 775.022 545.162 772.551C548.576 771.219 552.034 769.973 555.401 768.551C563.258 765.242 570.965 761.651 578.556 757.858C582.954 755.658 587.236 753.275 591.54 750.92C595.648 748.673 599.728 746.384 603.75 743.998C595.656 744.487 587.523 744.828 579.311 744.828Z" fill="#A4A77E"/>
<path d="M201.19 214.069C219.454 161.281 248.608 113.645 285.747 73.5017C284.759 72.522 283.962 71.3907 282.812 70.5548L234.919 35.7407C234.658 35.8595 234.395 35.972 234.133 36.0923C228.576 38.6048 223.119 41.2923 217.703 44.0532C216.323 44.7626 214.919 45.4267 213.55 46.1501C208.667 48.7126 203.881 51.4298 199.12 54.1876C195.192 56.472 191.329 58.847 187.487 61.2595C184.639 63.0438 181.773 64.7985 178.973 66.6548C175.589 68.9032 172.279 71.2548 168.97 73.6032C166.834 75.1157 164.69 76.6188 162.586 78.172C159.29 80.6063 156.048 83.1048 152.833 85.6376C150.753 87.2735 148.695 88.9313 146.65 90.6079C143.565 93.1345 140.504 95.6876 137.498 98.3032C135.267 100.249 133.086 102.249 130.898 104.241C128.187 106.708 125.461 109.156 122.817 111.695C118.931 115.439 115.136 119.275 111.403 123.174C109.925 124.713 108.458 126.261 107.004 127.824C102.937 132.209 98.942 136.663 95.0748 141.228C94.7857 141.569 94.5107 141.924 94.2217 142.266L111.325 194.995C115.014 206.367 125.609 214.069 137.565 214.069H201.187H201.19Z" fill="#436836"/>
</g>
<defs>
<clipPath id="clip0_136_94">
<rect width="800" height="800" fill="white"/>
</clipPath>
</defs>
</svg>
