<svg width="32" height="35" viewBox="0 0 32 35" fill="none" xmlns="http://www.w3.org/2000/svg">
<path d="M0 31V13C0 12.3667 0.142 11.7667 0.426 11.2C0.71 10.6333 1.10133 10.1667 1.6 9.8L13.6 0.8C14.3 0.266667 15.1 0 16 0C16.9 0 17.7 0.266667 18.4 0.8L30.4 9.8C30.9 10.1667 31.292 10.6333 31.576 11.2C31.86 11.7667 32.0013 12.3667 32 13V31C32 32.1 31.608 33.042 30.824 33.826C30.04 34.61 29.0987 35.0013 28 35H22C21.4333 35 20.9587 34.808 20.576 34.424C20.1933 34.04 20.0013 33.5653 20 33V23C20 22.4333 19.808 21.9587 19.424 21.576C19.04 21.1933 18.5653 21.0013 18 21H14C13.4333 21 12.9587 21.192 12.576 21.576C12.1933 21.96 12.0013 22.4347 12 23V33C12 33.5667 11.808 34.042 11.424 34.426C11.04 34.81 10.5653 35.0013 10 35H4C2.9 35 1.95867 34.6087 1.176 33.826C0.393333 33.0433 0.00133333 32.1013 0 31Z" fill="#255935"/>
</svg>
