<svg width="76" height="76" viewBox="0 0 76 76" fill="none" xmlns="http://www.w3.org/2000/svg">
<path d="M66.6589 59.2384L41.3607 12.258C39.5676 8.92703 34.7908 8.92703 32.9962 12.258L7.69951 59.2384C7.31017 59.9616 7.11498 60.7733 7.13298 61.5943C7.15098 62.4154 7.38155 63.2178 7.8022 63.9231C8.22284 64.6285 8.81919 65.2128 9.53302 65.6189C10.2469 66.025 11.0538 66.2391 11.8751 66.2402H62.4759C63.2978 66.2403 64.1057 66.0272 64.8205 65.6216C65.5354 65.216 66.1328 64.6319 66.5543 63.9263C66.9758 63.2208 67.207 62.4179 67.2254 61.5962C67.2437 60.7745 67.0485 59.9621 66.6589 59.2384ZM37.1792 58.9668C36.592 58.9668 36.0181 58.7927 35.5298 58.4665C35.0416 58.1403 34.6611 57.6766 34.4364 57.1341C34.2117 56.5917 34.1529 55.9948 34.2675 55.4189C34.382 54.843 34.6648 54.314 35.08 53.8988C35.4952 53.4836 36.0241 53.2009 36.6 53.0863C37.1759 52.9718 37.7728 53.0306 38.3153 53.2553C38.8577 53.48 39.3214 53.8605 39.6476 54.3487C39.9738 54.8369 40.1479 55.4109 40.1479 55.998C40.1479 56.7854 39.8352 57.5405 39.2784 58.0973C38.7217 58.654 37.9666 58.9668 37.1792 58.9668ZM40.4033 29.1086L39.5512 47.218C39.5512 47.8479 39.301 48.4519 38.8556 48.8973C38.4102 49.3427 37.8061 49.593 37.1762 49.593C36.5463 49.593 35.9422 49.3427 35.4968 48.8973C35.0514 48.4519 34.8012 47.8479 34.8012 47.218L33.9492 29.116C33.93 28.6835 33.9982 28.2515 34.1495 27.8458C34.3009 27.4401 34.5324 27.0691 34.8302 26.7548C35.128 26.4405 35.4861 26.1894 35.883 26.0164C36.2799 25.8434 36.7076 25.7521 37.1406 25.748H37.1718C37.6077 25.7477 38.0391 25.8358 38.4401 26.0069C38.841 26.178 39.2031 26.4286 39.5046 26.7435C39.806 27.0584 40.0405 27.4311 40.1939 27.8391C40.3474 28.2471 40.4166 28.682 40.3973 29.1175L40.4033 29.1086Z" fill="#255935"/>
</svg>
